<svg width="144" height="32" viewBox="0 0 144 32" fill="none" xmlns="http://www.w3.org/2000/svg">
<path d="M34.7055 6.94556H32.9383L27 21.3395H29.2553L31.0429 16.9337H36.5135L38.3194 21.3395H40.6255L34.7055 6.94556ZM33.8128 9.85813C33.9551 10.3008 34.0975 10.6969 34.2358 11.0387L35.7936 15.0037H31.8259L33.4121 11.0232C33.5653 10.6219 33.6989 10.2335 33.8128 9.85813Z" fill="#04132F"/>
<path d="M48.7827 6.41941L48.2072 8.14754L47.9631 8.06987C46.6067 7.64657 45.7261 7.69123 45.3031 8.27957C45.0428 8.63102 44.9106 9.22324 44.9106 10.0407V10.4659H47.6255V12.1824H44.9106V21.3551H42.7854V12.1882H40.8799V11.0485L42.7854 10.4795V10.0776C42.7854 7.37667 44.028 6 46.4765 6C47.1768 6.01922 47.8706 6.1343 48.5366 6.34174L48.7827 6.41941Z" fill="#04132F"/>
<path d="M55.4157 19.4813V21.1608L55.2713 21.2269C54.9984 21.3416 54.7092 21.4175 54.4131 21.4521C54.0906 21.5043 53.7641 21.5316 53.437 21.5337C51.2 21.5337 50.0265 20.3512 50.0265 18.1162V12.1882H48.4688V11.0232L50.0692 10.3513L50.7932 8.06787H52.172V10.4756H55.3283V12.1882H52.1619V18.0599C52.1619 18.623 52.2981 19.0521 52.5686 19.3415C52.7057 19.4849 52.8749 19.5971 53.0636 19.6697C53.2523 19.7423 53.4556 19.7735 53.6587 19.7609C53.9276 19.7609 54.1961 19.7414 54.4619 19.7026C54.6676 19.6741 54.8714 19.6339 55.072 19.5822L55.4157 19.4813Z" fill="#04132F"/>
<path d="M66.1805 15.198C66.1805 13.7397 65.7595 12.5456 64.9257 11.6485C64.0919 10.7514 62.9327 10.2893 61.499 10.2893C59.9717 10.2893 58.7332 10.8155 57.8241 11.8543C56.9151 12.8931 56.4697 14.2776 56.4697 16.0018C56.4697 17.7261 56.9619 19.0872 57.9319 20.0658C58.902 21.0445 60.2503 21.5435 61.926 21.5435C62.5741 21.5521 63.2214 21.4981 63.858 21.3823C64.4425 21.2604 65.0128 21.0828 65.5602 20.8522L65.7127 20.7882V18.8464L65.3609 18.9921C64.294 19.4369 63.1431 19.6689 61.9789 19.6736C60.9316 19.6736 60.1486 19.3901 59.5792 18.8057C59.0525 18.262 58.7657 17.4659 58.6885 16.4348H66.1744L66.1805 15.198ZM61.4786 12.0912C62.2677 12.0912 62.8534 12.3203 63.2703 12.7941C63.6547 13.2329 63.8661 13.864 63.9007 14.6776H58.7556C58.8233 13.9955 59.107 13.3494 59.569 12.8252C59.811 12.5757 60.1075 12.3801 60.4376 12.2523C60.7676 12.1244 61.123 12.0674 61.4786 12.0854V12.0912Z" fill="#04132F"/>
<path d="M75.2899 10.4406L74.9849 12.3823L74.7205 12.326C74.3475 12.2429 73.9665 12.1974 73.5837 12.1901C73.1872 12.1886 72.7954 12.2723 72.4374 12.435C72.0794 12.5977 71.7643 12.8351 71.5154 13.1298C70.9255 13.7943 70.614 14.6436 70.641 15.5143V21.3394H68.4873V10.4658H70.3339L70.4803 12.0192C70.8072 11.5731 71.2157 11.187 71.6863 10.8794C72.281 10.4913 72.9853 10.2848 73.7057 10.2872C74.1595 10.2829 74.6126 10.3226 75.0581 10.4056L75.2899 10.4406Z" fill="#04132F"/>
<path d="M78.6957 6.10864H76.54V21.3453H78.6957V6.10864Z" fill="#04132F"/>
<path d="M89.7058 11.8138C88.7642 10.7963 87.4789 10.2817 85.8886 10.2817C84.2434 10.2817 82.9377 10.7866 82.0043 11.7788C81.0708 12.771 80.6092 14.1555 80.6092 15.903C80.5853 16.9249 80.8022 17.9388 81.2437 18.8699C81.6406 19.6888 82.2824 20.3772 83.0882 20.8485C83.912 21.3133 84.8547 21.5506 85.8113 21.534C87.4565 21.534 88.7642 21.0272 89.7058 20.0272C90.6473 19.0272 91.111 17.6505 91.111 15.903C91.1171 14.1962 90.6412 12.8234 89.7058 11.8138ZM85.8581 19.7321C84.8535 19.7321 84.1173 19.4233 83.6088 18.7864C83.1004 18.1496 82.8259 17.1671 82.8259 15.9011C82.8259 14.6351 83.0842 13.6526 83.5966 13.0234C84.1091 12.3943 84.8331 12.105 85.8337 12.105C86.8342 12.105 87.603 12.4079 88.1114 13.039C88.6198 13.67 88.8964 14.6409 88.8964 15.9011C88.8964 17.1612 88.632 18.1457 88.1114 18.7903C87.5908 19.435 86.8627 19.7321 85.8581 19.7321Z" fill="#04132F"/>
<path d="M102.912 10.4661H98.936C98.4237 10.3331 97.8948 10.2678 97.364 10.2719C95.9973 10.2719 94.9236 10.6039 94.1569 11.2602C93.3902 11.9165 92.9997 12.866 92.9997 14.0699C92.99 14.7562 93.1885 15.4306 93.5712 16.0116C93.8436 16.4313 94.2156 16.7838 94.6572 17.0407C94.3869 17.2208 94.1487 17.4411 93.9515 17.6931C93.7073 18.0262 93.5799 18.4245 93.5875 18.831C93.5774 19.197 93.6892 19.5567 93.9067 19.8582C93.9979 19.9784 94.1022 20.0891 94.2179 20.1882C93.687 20.3592 93.2114 20.6582 92.837 21.0562C92.377 21.5519 92.1274 22.1939 92.1375 22.8562C92.1206 23.3177 92.2285 23.7755 92.4508 24.1857C92.673 24.5958 93.0022 24.9444 93.4065 25.1979C94.2199 25.7299 95.371 25.9998 96.8413 25.9998C98.7367 25.9998 100.205 25.6814 101.21 25.0542C102.247 24.4076 102.776 23.4542 102.776 22.2212C102.776 21.2504 102.422 20.4737 101.728 19.963C101.035 19.4523 100.091 19.2038 98.8607 19.2038H96.9328C96.2516 19.2038 95.9424 19.1087 95.8001 19.031C95.7216 18.9911 95.657 18.9301 95.6144 18.8556C95.5717 18.781 95.5529 18.6962 95.5601 18.6116C95.5601 18.1863 95.8346 17.8349 96.402 17.5281C96.6891 17.5727 96.9796 17.5942 97.2704 17.5922C98.6004 17.5922 99.6661 17.266 100.439 16.6213C100.827 16.2951 101.134 15.8907 101.338 15.4374C101.542 14.984 101.637 14.4931 101.618 14C101.621 13.5623 101.539 13.1279 101.376 12.7185C101.295 12.5177 101.198 12.3229 101.086 12.136L102.916 11.9301L102.912 10.4661ZM96.8596 24.3222C95.9851 24.3222 95.31 24.1882 94.8565 23.9222C94.658 23.8165 94.4944 23.6599 94.3841 23.4702C94.2738 23.2805 94.2211 23.0651 94.2321 22.8484C94.2321 22.2775 94.4091 21.8581 94.769 21.563C95.129 21.2678 95.6699 21.1106 96.3532 21.1106H98.3259C99.5135 21.1106 100.026 21.2678 100.248 21.3999C100.534 21.5727 100.675 21.8872 100.675 22.3707C100.675 22.9532 100.388 23.4193 99.7942 23.7726C99.2004 24.126 98.1876 24.3222 96.8596 24.3222ZM97.3091 16.0077C96.6115 16.0077 96.0624 15.8388 95.6821 15.5126C95.3018 15.1864 95.1269 14.7029 95.1269 14.0408C95.1269 13.3282 95.314 12.7884 95.6801 12.4389C96.0462 12.0894 96.5851 11.9146 97.2846 11.9146C98.7774 11.9146 99.4749 12.5806 99.4749 14.0117C99.4749 15.3728 98.7875 16.0077 97.3091 16.0077Z" fill="#04132F"/>
<path d="M106.953 24.5838C106.968 24.7606 106.944 24.9384 106.883 25.1057C106.821 25.2729 106.723 25.4259 106.595 25.5547C106.359 25.7598 106.051 25.8734 105.732 25.8734C105.413 25.8734 105.105 25.7598 104.869 25.5547C104.738 25.4271 104.638 25.2746 104.574 25.1073C104.51 24.94 104.483 24.7616 104.497 24.5838C104.484 24.4063 104.511 24.2284 104.575 24.0613C104.638 23.8941 104.738 23.7415 104.867 23.613C105.096 23.3989 105.404 23.2796 105.725 23.2809C105.886 23.2768 106.047 23.3039 106.197 23.3606C106.348 23.4173 106.484 23.5025 106.599 23.611C106.725 23.7413 106.821 23.8949 106.882 24.0622C106.943 24.2296 106.967 24.4072 106.953 24.5838Z" fill="#04132F"/>
<path d="M106.813 10.4971H104.657V22.0114H106.813V10.4971Z" fill="#04132F"/>
<path d="M116.426 19.1357L116.774 18.9998V20.9027L116.635 20.9706C115.871 21.3395 114.911 21.5337 113.768 21.5337C112.127 21.5337 110.829 21.0405 109.92 20.0658C109.011 19.091 108.56 17.7202 108.56 15.9726C108.56 14.1824 109.025 12.7727 109.94 11.7844C110.856 10.796 112.177 10.2795 113.878 10.2795C114.425 10.2797 114.97 10.3357 115.505 10.4465C115.952 10.5275 116.386 10.6646 116.796 10.8543L116.999 10.9514L116.33 12.7242L116.086 12.629C115.711 12.4899 115.324 12.3783 114.931 12.295C114.575 12.2133 114.211 12.169 113.845 12.163C111.785 12.163 110.782 13.4057 110.782 15.9591C110.782 17.1784 111.037 18.1182 111.541 18.7532C112.045 19.3881 112.761 19.6794 113.737 19.6794C114.662 19.6671 115.575 19.4824 116.426 19.1357Z" fill="#04132F"/>
</svg>
