<svg xmlns="http://www.w3.org/2000/svg" xmlns:xlink="http://www.w3.org/1999/xlink"><symbol id="accept" viewBox="0 0 21 17"><g fill="none">
<path fill-rule="evenodd" clip-rule="evenodd" d="M7.47289 13.3745L18.748 0.349609L20.2671 1.6389L7.53262 16.3496L0.26709 8.60217L1.73326 7.25412L7.47289 13.3745Z" fill="#13450B"/>
</g></symbol><symbol id="arrow-down" viewBox="0 0 10 6"><g fill="none">
    <path d="M5.19347 5.92638C5.13973 5.97546 5.07524 6 5 6C4.92476 6 4.86027 5.97546 4.80653 5.92638L0.0825487 0.515337C-0.00343953 0.429448 -0.0222495 0.322086 0.0261189 0.193251C0.0744873 0.064417 0.157788 -1.63913e-07 0.276022 -1.63913e-07H9.72398C9.84221 -1.63913e-07 9.92551 0.064417 9.97388 0.193251C10.0222 0.322086 10.0034 0.429448 9.91745 0.515337L5.19347 5.92638Z" fill="currentColor"/>
</g></symbol><symbol id="arrow-left" viewBox="0 0 41 16"><g fill="none">
<path d="M40 9C40.5523 9 41 8.55228 41 8C41 7.44772 40.5523 7 40 7V9ZM0.292892 7.29289C-0.0976295 7.68342 -0.0976295 8.31658 0.292892 8.70711L6.65685 15.0711C7.04738 15.4616 7.68054 15.4616 8.07107 15.0711C8.46159 14.6805 8.46159 14.0474 8.07107 13.6569L2.41422 8L8.07107 2.34315C8.46159 1.95262 8.46159 1.31946 8.07107 0.928932C7.68054 0.538408 7.04738 0.538408 6.65685 0.928932L0.292892 7.29289ZM40 7L1 7V9L40 9V7Z" fill="black"/>
</g></symbol><symbol id="select-down" viewBox="0 0 24 14"><g fill="none">
<path fill-rule="evenodd" clip-rule="evenodd" d="M10.7501 13.5352C11.1112 13.8506 11.5509 14 12 14C12.4491 14 12.8888 13.8506 13.2499 13.5352L13.3038 13.488L23.6666 2.13425C24.1388 1.61687 24.1054 0.811727 23.5919 0.335921C23.0784 -0.139882 22.2793 -0.106174 21.8071 0.411213L12 11.1561L2.19293 0.411213C1.72071 -0.106174 0.921618 -0.139882 0.408122 0.335921C-0.105375 0.811727 -0.138831 1.61687 0.333396 2.13425L10.6962 13.488L10.7501 13.5352Z" fill="currentColor" fill-opacity="0.2"/>
</g></symbol><symbol id="select-top" viewBox="0 0 24 14"><g fill="none">
<path fill-rule="evenodd" clip-rule="evenodd" d="M13.2499 0.464833C12.8888 0.149435 12.4491 -1.00981e-06 12 -1.04907e-06C11.5509 -1.08834e-06 11.1112 0.149435 10.7501 0.464833L10.6962 0.51198L0.333396 11.8657C-0.138831 12.3831 -0.105376 13.1883 0.408122 13.6641C0.921616 14.1399 1.72071 14.1062 2.19293 13.5888L12 2.84385L21.8071 13.5888C22.2793 14.1062 23.0784 14.1399 23.5919 13.6641C24.1054 13.1883 24.1388 12.3831 23.6666 11.8657L13.3038 0.51198L13.2499 0.464833Z" fill="currentColor" fill-opacity="0.6"/>
</g></symbol></svg>